<svg xmlns="http://www.w3.org/2000/svg" enable-background="new 0 0 24 24" viewBox="0 0 24 24"><path d="M12,24c-0.08,0-0.16-0.019-0.233-0.058l-9.5-5c-0.142-0.075-0.239-0.213-0.262-0.372l-2-14C-0.029,4.334,0.11,4.106,0.336,4.028l11.5-4c0.106-0.037,0.222-0.037,0.328,0l11.5,4c0.226,0.079,0.365,0.306,0.331,0.543l-2,14c-0.023,0.159-0.12,0.297-0.262,0.372l-9.5,5C12.16,23.981,12.08,24,12,24z M2.959,18.176L12,22.935l9.041-4.759l1.906-13.339L12,1.029L1.053,4.837L2.959,18.176z"/><path d="M18.5,19h-3c-0.208,0-0.395-0.129-0.468-0.324L13.653,15h-3.307l-1.378,3.676C8.895,18.871,8.708,19,8.5,19H5.53c-0.166,0-0.322-0.083-0.415-0.221c-0.093-0.138-0.111-0.312-0.049-0.467l6.47-16C11.613,2.124,11.796,2,12,2h0c0.204,0,0.387,0.123,0.463,0.312l6.5,16c0.062,0.154,0.044,0.329-0.049,0.467C18.822,18.917,18.667,19,18.5,19z M15.847,18h1.911L12.001,3.831L6.272,18h1.881l1.378-3.676C9.605,14.129,9.792,14,10,14h4c0.208,0,0.395,0.129,0.468,0.324L15.847,18z"/><path d="M13.541,13H10.5c-0.158,0-0.307-0.075-0.401-0.202c-0.094-0.126-0.123-0.291-0.078-0.442l1.5-5C11.584,7.146,11.778,7.001,11.998,7C11.999,7,12,7,12,7c0.219,0,0.413,0.143,0.478,0.353l1.541,5c0.046,0.152,0.019,0.317-0.076,0.444C13.849,12.925,13.7,13,13.541,13z M11.172,12h1.692l-0.857-2.781L11.172,12z"/></svg>